# xmcd
#
# Track frame offsets:
#	150
#	8106
#	17772
#	27820
#	36746
#	45104
#	55487
#	79595
#	95747
#	106915
#	122455
#	132908
#	147872
#	162913
#	177511
#	191245
#	207195
#	222062
#	234985
#	245269
#	257887
#	271485
#
# Disc length: 3779 seconds
#
# Revision: 1
# Processed by: cddbd v1.5.2PL0 Copyright (c) Steve Scherf et al.
# Submitted via: audiograbber 1.83.01
#
DISCID=310ec116
DTITLE=Martin and Sabine Pyrker - A Father's Dream - DVD Rip
DYEAR=2004
DGENRE=Boogie
TTITLE0=Martin and Sabine Pyrker - A father's Dream
TTITLE1=Martin and Sabine Pyrker - Drum The Boogie
TTITLE2=Martin and Sabine Pyrker - Key To The Highway
TTITLE3=Martin and Sabine Pyrker - Freddie's Got The Blues
TTITLE4=Martin and Sabine Pyrker - Charlie Booty Stomp
TTITLE5=Martin and Sabine Pyrker - Speedy Andrea
TTITLE6=Martin and Sabine Pyrker - Karina's Boogie Woogie
TTITLE7=Martin and Sabine Pyrker - Pinetop's Boogie Woogie
TTITLE8=Martin and Sabine Pyrker - Jimm'y Rocks
TTITLE9=Martin and Sabine Pyrker - Goodbye Ma!
TTITLE10=Martin and Sabine Pyrker - Cow Cow Blues
TTITLE11=Martin and Sabine Pyrker - Roll 'Em Pete
TTITLE12=Martin and Sabine Pyrker - Christine's Blues
TTITLE13=Martin and Sabine Pyrker - I Can't Sleep
TTITLE14=Martin and Sabine Pyrker - Indiana Avenue Stomp
TTITLE15=Martin and Sabine Pyrker - Shout For Joy
TTITLE16=Martin and Sabine Pyrker - Chicago Breakdown
TTITLE17=Martin and Sabine Pyrker - Fort Worth Stomp
TTITLE18=Martin and Sabine Pyrker - Babies Boogie
TTITLE19=Martin and Sabine Pyrker and Axel Zwingenberger - Cuttin' The Boogie
TTITLE20=Martin and Sabine Pyrker and Axel Zwingenberger - Two Talking Grands
TTITLE21=Martin and Sabine Pyrker and Axel Zwingenberger - Sixth Avenue Express
EXTD=
EXTT0=
EXTT1=
EXTT2=
EXTT3=
EXTT4=
EXTT5=
EXTT6=
EXTT7=
EXTT8=
EXTT9=
EXTT10=
EXTT11=
EXTT12=
EXTT13=
EXTT14=
EXTT15=
EXTT16=
EXTT17=
EXTT18=
EXTT19=
EXTT20=
EXTT21=
PLAYORDER=
